<svg xmlns="http://www.w3.org/2000/svg" width="101" height="66"><g fill="none" fill-rule="evenodd"><path fill="#101415" d="M3.097 2.969H97.36v59.89H8.01v1.3z"/><path fill="#FFF" d="M100.5 0v65.9L5 66 0 0zm-6 6h-88l5 54h83zm-16.4 7.5c5.9 0 8.9 3.5 8.9 9.6v1.2h-5.7v-1.6c0-2.7-1.1-3.8-3-3.8s-3 1-3 3.8c0 2.579 1.018 4.564 4.304 7.518l.586.516q.151.132.31.266c5 4.4 6.6 7.6 6.6 12 0 6.1-3.1 9.6-9 9.6s-9-3.5-9-9.6v-2.4h5.7v2.7c0 2.7 1.2 3.7 3.1 3.7s3.1-1 3.1-3.7c0-2.8-1.2-4.9-5.2-8.3-5-4.4-6.6-7.6-6.6-12 0-6 3.1-9.5 8.9-9.5m-16 0V19h-6.8c-1.9 0-3.1 1-3.1 3.7v2.4c0 3.1 1.4 4.1 3.6 4.1h2.6v-4.3h6v4.3H66v5.5h-1.6v12.601c0 1.899.1 3.2.7 4.7H59l-.092-.258-.08-.248-.069-.25a6 6 0 0 1-.058-.265l-.05-.292-.044-.332-.038-.384-.035-.447-.034-.524h-.1c-1 2.199-2.8 3.5-5.5 3.5-4.4 0-6.7-3.101-6.7-8.801v-3.899c.1-4.101 1.3-6.901 4.2-8.201v-.1c-2.9-1.199-4.2-3.699-4.2-7.8V23c0-6.1 3-9.5 9-9.5zm-42.3.5L23 44.299h.1L25.9 14h5.8l3 30.5h.1L37.9 14h5.3l-4.3 38.4h-8l-2.1-20.5h-.1l-2.2 20.5h-8.3L13.9 14zm38.7 20.501h-2.3c-2.7 0-3.9 1.3-3.9 4.899v3.601c0 2.699 1.2 3.699 3.1 3.699 1.8 0 3-.899 3.1-3.3z"/></g></svg>